<svg width="117" height="117" viewBox="0 0 117 117" fill="none" xmlns="http://www.w3.org/2000/svg">
<path d="M0 58.5C0 26.1913 26.1913 0 58.5 0C90.8087 0 117 26.1913 117 58.5C117 90.8087 90.8087 117 58.5 117C26.1913 117 0 90.8087 0 58.5Z" fill="#494B50"/>
<path d="M58.5 5C28.9413 5 5 28.8742 5 58.3203C5 81.8834 20.3277 101.865 41.5806 108.908C44.2556 109.41 45.2365 107.761 45.2365 106.344C45.2365 105.078 45.1919 101.723 45.1696 97.2796C30.2877 100.497 27.149 90.1258 27.149 90.1258C24.7147 83.9718 21.1971 82.3277 21.1971 82.3277C16.3509 79.0219 21.5716 79.0885 21.5716 79.0885C26.9439 79.4618 29.766 84.5805 29.766 84.5805C34.5365 92.7341 42.2895 90.3791 45.3479 89.015C45.8294 85.5669 47.207 83.2164 48.7362 81.8834C36.8548 80.5504 24.367 75.9648 24.367 55.5343C24.367 49.7135 26.4401 44.9591 29.873 41.2267C29.2712 39.8803 27.4655 34.4594 30.3412 27.1146C30.3412 27.1146 34.8218 25.6838 45.0537 32.5799C49.3337 31.3935 53.8812 30.807 58.4287 30.7803C62.9762 30.807 67.5237 31.3935 71.8037 32.5799C81.9687 25.6838 86.4493 27.1146 86.4493 27.1146C89.3249 34.4594 87.5193 39.8803 86.9843 41.2267C90.3949 44.9591 92.468 49.7135 92.468 55.5343C92.468 76.0182 79.9624 80.5282 68.0587 81.8389C69.9312 83.4386 71.6699 86.7089 71.6699 91.7032C71.6699 98.8392 71.603 104.571 71.603 106.304C71.603 107.704 72.5393 109.37 75.2812 108.837C96.6856 101.843 112 81.8478 112 58.3203C112 28.8742 88.0454 5 58.5 5Z" fill="#ABABAB"/>
</svg>
